<svg xmlns="http://www.w3.org/2000/svg" xml:space="preserve" style="enable-background:new 0 0 234.5 26"
    viewBox="0 0 234.5 26" alt="kitchenstories-logo" class="h-full max-w-[137px] md:max-w-[182px]" height="24"
    width="180" fill="currentcolor">
    <path
        d="M20.7 25.2V25c0-.7 1.3-.7 1.3-2V12.1c0-1.4-1.3-1.7-1.3-2.3 0-.3.2-.4.5-.5L24 7.9c.8-.4 1.1 0 1.1.5V23c0 1.3 1.5 1.3 1.5 2v.1c0 .3-.3.5-.8.5h-4.5c-.3 0-.6-.2-.6-.4zm.4-22.9C21.1 1 22 0 23.5 0c1.4 0 2.4 1 2.4 2.3 0 1.4-1 2.3-2.4 2.3-1.5 0-2.4-.9-2.4-2.3zm20.2 14.4c0-5.5 4-9 9-9 4 0 7.1 2.5 7.1 4.5 0 .7-.4 1.3-1.5 1.3-2.1-.1-2.1-4.6-6.3-4.6-3 0-5.2 2.8-5.2 6.4 0 5.1 2.9 8.4 7 8.4 2.6 0 4.2-1.6 5.1-3.4.3-.5 1.2-.4 1.1.3-.5 2.7-2.9 5.5-7.2 5.5-5-.1-9.1-4.1-9.1-9.4zm55.1 4.1c-.5 2.2-2.8 5.2-7.3 5.2-5.1 0-8.8-3.7-8.8-9.3 0-5.3 3.7-9 8.7-9 3.7 0 6.4 1.7 6.4 4.9 0 2.5-2.3 4.6-5.7 5.3-2.3.4-4.4.3-6.2.2.8 3.4 3.1 5.6 6.4 5.6 2.8 0 4.5-1.4 5.3-3.2.4-.5 1.2-.4 1.2.3zm-13.1-5.4c0 .4 0 .9.1 1.3 1.6.1 3.8.2 5.8-.2s3.3-1.6 3.3-3.9c0-2.1-1.6-3.6-3.9-3.6-3.2-.1-5.3 2.8-5.3 6.4zm34.2 9.6v.1c0 .3-.3.5-.8.5h-4.4c-.5 0-.8-.2-.8-.5V25c0-.7 1.4-.7 1.3-2l-.4-7.3c-.2-4.5-2-6.6-4.5-6.6-2.7 0-4.6 2.2-4.6 5.1v8.9c0 1.3 1.5 1.3 1.5 2v.1c0 .3-.3.5-.8.5h-4.6c-.4 0-.7-.2-.7-.5V25c0-.7 1.4-.7 1.4-2V12c0-1.6-1.5-1.5-1.5-2.2v-.1c0-.3.2-.4.6-.5l2.7-1.3c.7-.4 1 0 1 .5v2.7c1.1-2 3.2-3.4 5.7-3.4 3.6 0 6.6 2.4 7 8.1l.4 7.2c.2 1.3 1.5 1.3 1.5 2zm10.2-3.2c0-.9.6-1.4 1.4-1.4 2.3 0 1.1 4.5 6 4.5 2.3 0 4.2-1.1 4.2-3.2 0-5.4-11.2-1.8-11.2-9 0-2.8 2.9-5 6.9-5 4.5 0 7.1 2.3 7.1 4.3 0 .7-.6 1.3-1.3 1.3-2.1 0-1.2-4.5-5.7-4.5-2.1 0-3.8 1.4-3.8 3.2 0 5.3 11.2 1.7 11.2 9 0 2.7-2.9 4.9-7.4 4.9-4.8.1-7.4-2.4-7.4-4.1zm30-5.2c0-5.1 3.9-8.9 8.9-8.9 5.5 0 9.3 4.2 9.3 9.3 0 5.1-3.5 9-8.6 9-5.8 0-9.6-4.4-9.6-9.4zm15 1.5c0-5.1-2.7-9.2-6.4-9.2-3.1 0-5.3 2.6-5.3 6.7 0 4.7 2.7 9.2 6.7 9.2 2.9 0 5-2.6 5-6.7zm18-7.6c0 1-.4 1.7-1.5 1.7-1.9 0-1-2.6-3.3-2.6-2 0-3.1 2.3-3.1 5.1V23c0 1.3 1.5 1.3 1.5 2v.1c0 .3-.3.4-.7.4h-4.5c-.5 0-.7-.1-.7-.4V25c0-.7 1.4-.7 1.4-2V11.9c0-1.4-1.5-1.4-1.5-2.1v-.1c0-.3.2-.5.5-.7l2.8-1.2c.7-.3 1 0 1 .5v2.9c.8-2.3 2.5-3.6 4.8-3.6 2.1.1 3.3 1.4 3.3 2.9zm2.2 14.7V25c0-.7 1.3-.7 1.3-2V12.1c0-1.4-1.3-1.7-1.3-2.3 0-.3.2-.4.5-.5l2.8-1.4c.8-.4 1.1 0 1.1.5V23c0 1.3 1.5 1.3 1.5 2v.1c0 .3-.3.5-.8.5h-4.5c-.3 0-.6-.2-.6-.4zm.4-22.9c0-1.4 1-2.3 2.5-2.3 1.4 0 2.4 1 2.4 2.3 0 1.4-1 2.3-2.4 2.3-1.5 0-2.5-.9-2.5-2.3zm24 18.5c-.5 2.2-2.7 5.2-7.2 5.2-5.1 0-8.8-3.7-8.8-9.3 0-5.3 3.7-9 8.7-9 3.7 0 6.4 1.7 6.4 4.9 0 2.5-2.3 4.6-5.7 5.3-2.3.4-4.4.3-6.2.2.8 3.4 3.1 5.6 6.4 5.6 2.8 0 4.5-1.4 5.3-3.2.3-.5 1.2-.4 1.1.3zm-13.1-5.4c0 .4 0 .9.1 1.3 1.6.1 3.8.2 5.8-.2s3.3-1.6 3.3-3.9c0-2.1-1.6-3.6-3.9-3.6-3.2-.1-5.3 2.8-5.3 6.4zm15.5 6.4c0-.9.6-1.4 1.4-1.4 2.3 0 1.1 4.5 6 4.5 2.3 0 4.2-1.1 4.2-3.2 0-5.4-11.2-1.8-11.2-9 0-2.8 2.9-5 6.9-5 4.5 0 7.1 2.3 7.1 4.3 0 .7-.6 1.3-1.3 1.3-2.1 0-1.2-4.5-5.7-4.5-2.1 0-3.8 1.4-3.8 3.2 0 5.3 11.2 1.7 11.2 9 0 2.7-2.9 4.9-7.4 4.9-4.9.1-7.4-2.4-7.4-4.1zm-203 1.7-5.6-7.8c3.3-2 4.4-5.1 4.4-6.5 0-.8-.5-1.5-1.5-1.5-3 0-.3 7.8-9.3 8.1V.8c0-.5-.4-.9-1.1-.5L.5 1.6c-.3.1-.5.3-.5.6 0 .7 1.4 1 1.4 2.3V23c0 1.3-1.4 1.3-1.4 2v.1c0 .3.3.5.8.5h4.5c.5 0 .8-.2.8-.5V25c0-.8-1.5-.8-1.5-2v-5.6c1.5 0 2.7-.3 3.8-.6l4.7 6.7c.5.8-.7.8-.7 1.5v.1c0 .3.2.5.5.5h4.7c.4 0 .5-.2.5-.5V25c.2-.7-.9-.8-1.4-1.5zm60.5-.5-.4-7.4c-.3-5.5-3.3-7.9-6.9-7.9-2.3 0-4.3 1.1-5.5 2.9V.6c0-.5-.4-.8-1.1-.5l-3 1.3c-.1.2-.3.4-.3.7v.1c0 .6 1.4.7 1.4 2.1V23c0 1.3-1.4 1.2-1.4 2v.1c0 .3.3.5.7.5h4.6c.4 0 .8-.2.8-.5V25c0-.7-1.5-.7-1.5-2v-8.9c0-2.9 1.9-5.1 4.6-5.1 2.5 0 4.3 2.1 4.5 6.4L74 23c.1 1.3-1.3 1.3-1.3 2v.1c0 .3.3.4.7.4h4.4c.4 0 .7-.1.7-.4V25c.1-.7-1.1-.7-1.3-2zM39.4 9.5c.3 0 .5-.2.5-.5v-.4c0-.3-.3-.5-.5-.5h-5V4.6c0-.5-.1-.7-.6-.7h-.4c-.3 0-.6.3-.6.7-.2 2.1-1 3.5-2.8 3.5h-1.3c-.4 0-.5.2-.5.5V9c0 .3.2.5.5.5H31v10.9c0 3.6 1.7 5.4 4.4 5.5h.7c.5 0 .9-.1 1.2-.2 1.3-.4 2.3-1.4 2.7-2.6.2-.6-.6-1-1-.5-.5.9-1.4 1.4-2.5 1.3-1.2-.1-2.1-1.5-2.1-3.4v-11h5zm116.4 0c.3 0 .5-.2.5-.5v-.4c0-.3-.3-.5-.5-.5h-5.1V4.6c0-.5-.1-.7-.6-.7h-.4c-.3 0-.6.3-.6.7-.2 2.1-1 3.5-2.8 3.5H145c-.4 0-.5.2-.5.5V9c0 .3.2.5.5.5h2.4v10.9c0 3.6 1.7 5.4 4.4 5.5h.6c.5 0 .9-.1 1.2-.2 1.3-.4 2.3-1.4 2.7-2.6.2-.6-.6-1-1-.5-.5.9-1.4 1.4-2.5 1.3-1.2-.1-2.1-1.5-2.1-3.4v-11h5.1z">
    </path>
</svg>